<?xml version="1.0" encoding="iso-8859-1"?>
<!-- Generator: Adobe Illustrator 25.1.0, SVG Export Plug-In . SVG Version: 6.00 Build 0)  -->
<svg version="1.1" id="Layer_1" xmlns="http://www.w3.org/2000/svg" xmlns:xlink="http://www.w3.org/1999/xlink" x="0px" y="0px"
	 width="180px" height="60px" viewBox="0 0 180 60" enable-background="new 0 0 180 60" xml:space="preserve">
<path fill="#B486E2" d="M116.961,0l22.61,0c16.594,0,30.046,13.431,30.046,30v0c0,20.224,10.383,30,10.383,30
	c-13.963,0-22.198-6.159-22.198-6.159l-0.011-0.025c-5.058,3.863-11.36,6.184-18.22,6.184h-22.61c-16.594,0-30.047-13.431-30.047-30
	v0C86.914,13.431,100.367,0,116.961,0z"/>
<path fill="#2B2B2B" d="M118.298,23.361c-0.473-0.525-1.06-0.937-1.762-1.234c-0.702-0.298-1.511-0.445-2.427-0.445
	c-1.77,0-3.15,0.571-4.143,1.714c-0.991,1.143-1.488,2.751-1.488,4.821v3.565c0,2.133,0.497,3.756,1.488,4.868
	c0.993,1.112,2.373,1.668,4.143,1.668c0.916,0,1.725-0.149,2.427-0.445c0.702-0.298,1.289-0.709,1.762-1.234
	c0.473-0.526,0.831-1.143,1.077-1.851c0.242-0.709,0.365-1.466,0.365-2.274V32.24h-1.922v0.274c0,0.533-0.073,1.04-0.218,1.519
	c-0.145,0.48-0.365,0.907-0.663,1.28c-0.298,0.374-0.68,0.67-1.146,0.892c-0.466,0.22-1.026,0.331-1.682,0.331
	c-1.235,0-2.163-0.423-2.781-1.268c-0.617-0.845-0.926-2.052-0.926-3.622v-3.291c0-1.463,0.309-2.643,0.926-3.542
	c0.618-0.899,1.546-1.348,2.781-1.348c0.656,0,1.214,0.111,1.671,0.331c0.458,0.221,0.836,0.518,1.134,0.891
	c0.296,0.374,0.518,0.804,0.663,1.292c0.145,0.488,0.225,0.99,0.24,1.508v0.274h1.922v-0.274c0-0.807-0.123-1.565-0.365-2.274
	C119.129,24.504,118.771,23.886,118.298,23.361z M131.435,29.085h-6.821v-7.084h-1.922v15.997h1.922v-7.13h6.821v7.13h1.922V22.002
	h-1.922V29.085z M136.403,22.002v1.783h4.67v14.214h1.922V23.784h4.67v-1.783H136.403z"/>
<path fill="#F4F4F4" d="M63.039,0h-22.61C23.835,0,10.383,13.431,10.383,30v0C10.383,50.224,0,60,0,60
	c13.963,0,22.198-6.159,22.198-6.159l0.011-0.025C27.267,57.679,33.569,60,40.429,60h22.61c16.594,0,30.047-13.431,30.047-30v0
	C93.086,13.431,79.633,0,63.039,0z"/>
<path fill="#2B2B2B" d="M64.286,30.137v-0.274l6.638-7.724v-0.137h-2.38l-6.158,7.084h-0.525v-7.084h-1.922v15.997h1.922v-7.13
	h0.525l6.387,7.13h2.425v-0.137L64.286,30.137z M55.176,23.361c-0.473-0.525-1.06-0.937-1.762-1.234
	c-0.702-0.298-1.511-0.445-2.427-0.445c-1.77,0-3.15,0.571-4.143,1.714c-0.991,1.143-1.488,2.751-1.488,4.821v3.565
	c0,2.133,0.497,3.756,1.488,4.868c0.993,1.112,2.373,1.668,4.143,1.668c0.916,0,1.725-0.149,2.427-0.445
	c0.702-0.298,1.289-0.709,1.762-1.234c0.473-0.526,0.831-1.143,1.077-1.851c0.242-0.709,0.365-1.466,0.365-2.274V32.24h-1.922v0.274
	c0,0.533-0.073,1.04-0.218,1.519c-0.145,0.48-0.365,0.907-0.663,1.28c-0.298,0.374-0.68,0.67-1.146,0.892
	c-0.466,0.22-1.026,0.331-1.682,0.331c-1.235,0-2.163-0.423-2.781-1.268c-0.617-0.845-0.926-2.052-0.926-3.622v-3.291
	c0-1.463,0.309-2.643,0.926-3.542c0.618-0.899,1.546-1.348,2.781-1.348c0.656,0,1.214,0.111,1.671,0.331
	c0.458,0.221,0.836,0.518,1.134,0.891c0.296,0.374,0.518,0.804,0.663,1.292c0.145,0.488,0.225,0.99,0.24,1.508v0.274h1.922v-0.274
	c0-0.807-0.123-1.565-0.365-2.274C56.006,24.504,55.649,23.886,55.176,23.361z M41.18,23.19c-0.404-0.365-0.9-0.656-1.488-0.869
	c-0.587-0.213-1.263-0.32-2.025-0.32h-6.478v1.783h1.375v12.432h-1.375v1.783h6.478c0.762,0,1.438-0.106,2.025-0.32
	c0.589-0.213,1.084-0.507,1.488-0.88c0.404-0.374,0.71-0.816,0.916-1.326c0.205-0.51,0.309-1.062,0.309-1.656v-0.274
	c0-0.869-0.261-1.603-0.779-2.206c-0.52-0.602-1.16-1.009-1.922-1.223V29.84c0.38-0.106,0.736-0.262,1.064-0.468
	c0.328-0.206,0.615-0.454,0.859-0.743c0.244-0.289,0.434-0.617,0.572-0.983c0.138-0.365,0.207-0.769,0.207-1.211v-0.274
	c0-0.594-0.104-1.147-0.309-1.657C41.889,23.993,41.584,23.555,41.18,23.19z M39.772,31.588c0.535,0.481,0.801,1.132,0.801,1.955
	v0.137c0,0.792-0.281,1.413-0.846,1.863c-0.564,0.45-1.298,0.674-2.198,0.674h-3.044v-5.348h3.112
	C38.514,30.868,39.239,31.108,39.772,31.588z M40.573,26.435c0,0.822-0.266,1.47-0.801,1.943c-0.533,0.472-1.257,0.708-2.174,0.708
	h-3.112v-5.301h3.044c0.9,0,1.634,0.225,2.198,0.674c0.564,0.449,0.846,1.063,0.846,1.839V26.435z"/>
<g>
</g>
<g>
</g>
<g>
</g>
<g>
</g>
<g>
</g>
<g>
</g>
<g>
</g>
<g>
</g>
<g>
</g>
<g>
</g>
<g>
</g>
<g>
</g>
<g>
</g>
<g>
</g>
<g>
</g>
</svg>
