<?xml version="1.0" encoding="iso-8859-1"?>
<!-- Generator: Adobe Illustrator 25.1.0, SVG Export Plug-In . SVG Version: 6.00 Build 0)  -->
<svg version="1.1" id="Layer_1" xmlns="http://www.w3.org/2000/svg" xmlns:xlink="http://www.w3.org/1999/xlink" x="0px" y="0px"
	 width="93px" height="60px" viewBox="0 0 93 60" enable-background="new 0 0 93 60" xml:space="preserve">
<path fill="#F4F4F4" d="M63.024,0H40.435C23.856,0,10.416,13.431,10.416,30l0,0c0,20.224-10.373,30-10.373,30
	c13.95,0,22.177-6.159,22.177-6.159l0.011-0.025C27.285,57.679,33.581,60,40.435,60h22.589c16.579,0,30.019-13.431,30.019-30l0,0
	C93.043,13.431,79.602,0,63.024,0z"/>
<path fill="#2B2B2B" d="M64.27,30.137v-0.274l6.632-7.724v-0.137h-2.378l-6.152,7.084h-0.525v-7.084h-1.92v15.997h1.92v-7.13h0.525
	l6.381,7.13h2.423v-0.137L64.27,30.137z M55.168,23.361c-0.473-0.525-1.059-0.937-1.76-1.234c-0.701-0.298-1.51-0.445-2.425-0.445
	c-1.768,0-3.147,0.571-4.139,1.714c-0.99,1.143-1.487,2.751-1.487,4.821v3.565c0,2.133,0.497,3.756,1.487,4.868
	c0.992,1.112,2.371,1.668,4.139,1.668c0.915,0,1.723-0.149,2.425-0.445c0.701-0.298,1.288-0.709,1.76-1.234
	c0.473-0.526,0.83-1.143,1.076-1.851c0.242-0.709,0.365-1.466,0.365-2.274V32.24h-1.92v0.274c0,0.533-0.073,1.04-0.218,1.519
	c-0.145,0.48-0.365,0.907-0.662,1.28c-0.298,0.374-0.679,0.67-1.145,0.892c-0.466,0.22-1.025,0.331-1.68,0.331
	c-1.234,0-2.161-0.423-2.778-1.268c-0.616-0.845-0.925-2.052-0.925-3.622v-3.291c0-1.463,0.309-2.643,0.925-3.542
	c0.617-0.899,1.545-1.348,2.778-1.348c0.655,0,1.213,0.111,1.669,0.331c0.458,0.221,0.835,0.518,1.133,0.891
	c0.296,0.374,0.518,0.804,0.662,1.292c0.145,0.488,0.225,0.99,0.24,1.508v0.274h1.92v-0.274c0-0.807-0.123-1.565-0.365-2.274
	C55.997,24.504,55.641,23.886,55.168,23.361z M41.185,23.19c-0.404-0.365-0.899-0.656-1.487-0.869
	c-0.586-0.213-1.262-0.32-2.023-0.32h-6.472v1.783h1.374v12.432h-1.374v1.783h6.472c0.761,0,1.437-0.106,2.023-0.32
	c0.588-0.213,1.083-0.507,1.487-0.88c0.404-0.374,0.709-0.816,0.915-1.326c0.205-0.51,0.309-1.062,0.309-1.656v-0.274
	c0-0.869-0.261-1.603-0.778-2.206c-0.52-0.602-1.159-1.009-1.92-1.223V29.84c0.38-0.106,0.735-0.262,1.063-0.468
	c0.328-0.206,0.614-0.454,0.858-0.743c0.244-0.289,0.434-0.617,0.571-0.983c0.138-0.365,0.207-0.769,0.207-1.211v-0.274
	c0-0.594-0.104-1.147-0.309-1.657C41.893,23.993,41.589,23.555,41.185,23.19z M39.778,31.588c0.535,0.481,0.8,1.132,0.8,1.955v0.137
	c0,0.792-0.281,1.413-0.845,1.863c-0.563,0.45-1.297,0.674-2.196,0.674h-3.041v-5.348h3.109
	C38.521,30.868,39.246,31.108,39.778,31.588z M40.579,26.435c0,0.822-0.266,1.47-0.8,1.943c-0.533,0.472-1.256,0.708-2.172,0.708
	h-3.109v-5.301h3.041c0.899,0,1.632,0.225,2.196,0.674s0.845,1.063,0.845,1.839v0.137H40.579z"/>
</svg>
