<?xml version="1.0" encoding="iso-8859-1"?>
<!-- Generator: Adobe Illustrator 25.1.0, SVG Export Plug-In . SVG Version: 6.00 Build 0)  -->
<svg version="1.1" id="Layer_1" xmlns="http://www.w3.org/2000/svg" xmlns:xlink="http://www.w3.org/1999/xlink" x="0px" y="0px"
	 width="93px" height="60px" viewBox="0 0 93 60" enable-background="new 0 0 93 60" xml:space="preserve">
<g>
	<path fill="#B486E2" d="M30.019,0l22.589,0c16.579,0,30.019,13.431,30.019,30v0C82.627,50.224,93,60,93,60
		c-13.95,0-22.178-6.159-22.178-6.159l-0.011-0.025C65.758,57.679,59.462,60,52.608,60H30.019C13.44,60,0,46.569,0,30v0
		C0,13.431,13.44,0,30.019,0z"/>
	<path fill="#2B2B2B" d="M31.355,23.361c-0.473-0.525-1.059-0.937-1.76-1.234c-0.702-0.298-1.509-0.445-2.425-0.445
		c-1.768,0-3.147,0.571-4.139,1.714c-0.99,1.143-1.487,2.751-1.487,4.821v3.565c0,2.133,0.497,3.756,1.487,4.868
		c0.992,1.112,2.371,1.668,4.139,1.668c0.916,0,1.723-0.149,2.425-0.445c0.702-0.298,1.288-0.709,1.76-1.234
		c0.473-0.526,0.83-1.143,1.076-1.851c0.242-0.709,0.365-1.466,0.365-2.274V32.24h-1.921v0.274c0,0.533-0.073,1.04-0.218,1.519
		c-0.145,0.48-0.365,0.907-0.662,1.28c-0.298,0.374-0.679,0.67-1.144,0.892c-0.465,0.22-1.025,0.331-1.68,0.331
		c-1.234,0-2.161-0.423-2.778-1.268c-0.616-0.845-0.925-2.052-0.925-3.622v-3.291c0-1.463,0.309-2.643,0.925-3.542
		c0.618-0.899,1.545-1.348,2.778-1.348c0.655,0,1.213,0.111,1.669,0.331c0.458,0.221,0.836,0.518,1.133,0.891
		c0.296,0.374,0.517,0.804,0.663,1.292c0.145,0.488,0.225,0.99,0.24,1.508v0.274h1.921v-0.274c0-0.807-0.123-1.565-0.365-2.274
		C32.185,24.504,31.827,23.886,31.355,23.361z M44.48,29.085h-6.815v-7.084h-1.921v15.997h1.921v-7.13h6.815v7.13h1.92V22.002h-1.92
		V29.085z M49.443,22.002v1.783h4.665v14.214h1.92V23.784h4.665v-1.783H49.443z"/>
</g>
<g>
</g>
<g>
</g>
<g>
</g>
<g>
</g>
<g>
</g>
<g>
</g>
<g>
</g>
<g>
</g>
<g>
</g>
<g>
</g>
<g>
</g>
<g>
</g>
<g>
</g>
<g>
</g>
<g>
</g>
</svg>
